<svg version="1.2" xmlns="http://www.w3.org/2000/svg" viewBox="0 0 1920 1080" width="1920" height="1080"><defs><linearGradient id="P" gradientUnits="userSpaceOnUse"/><linearGradient id="g1" x1="-440.8" y1="1679.4" x2="2476" y2="-599.4" href="#P"><stop stop-color="#1c0039"/><stop offset="1" stop-color="#ff854a"/></linearGradient></defs><style>.a{fill:#b778ff}.b{opacity:.5;fill:url(#g1)}</style><path class="a" d="m19.3 427.6c0 19.6 11.1 29.2 29.2 29.2 18 0 29.1-9.6 29.1-29.2v-153.1h0.8l105.1 166.1c7.8 12.1 14.1 16.2 33.3 16.2 25.4 0 35.8-13.7 35.8-37.6v-208.6c0-19.5-11.1-29.1-29.2-29.1-18.1 0-29.2 9.6-29.2 29.1v157.6h-0.7l-105.9-170.8c-6.7-11.1-17.7-15.9-30.3-15.9-25.8 0-38 10.3-38 35.4zm327.4-72.3c0-35.1 14.4-61.3 45.7-61.3 31.4 0 45.8 26.2 45.8 61.3 0 32.8-13.7 61.6-45.8 61.6-32.1 0-45.7-28.8-45.7-61.6zm-53.9 0c0 53.9 26.2 101.5 99.6 101.5 73.5 0 99.7-47.6 99.7-101.5 0-56.9-34.7-101.1-99.7-101.1-64.9 0-99.6 44.2-99.6 101.1zm353.5 71.2c0 18.1 11.8 30.3 30.3 30.3 18.4 0 30.3-12.2 30.3-30.3v-72h67.1c58.7 0 92.3-35.8 92.3-84.1 0-59.1-41-84.1-91.9-84.1h-92.6c-21.4 0-35.5 8.4-35.5 35.4zm60.6-193.8h50.1c29.9 0 48.8 11.1 48.8 37.7 0 22.9-18.1 37.6-42.5 37.6h-56.4zm195.6 197.1c0 14.4 5.9 26.9 26.9 26.9 21 0 26.9-12.5 26.9-26.9v-148.7c0-14.4-5.9-27-26.9-27-21 0-26.9 12.6-26.9 27zm-1.1-221.8c0 15.5 12.5 28 28 28 15.5 0 28-12.5 28-28 0-15.5-12.5-28.1-28-28.1-15.5 0-28 12.6-28 28.1zm90.4 151.3c0 56.4 31.3 97.4 97.8 97.4 55.3 0 81.9-32.5 81.9-56.1 0-10.7-8.9-20.7-22.5-20.7-28.4 0-20.3 34.7-58 34.7-29.5 0-45.3-21.7-45.3-55.3 0-48.7 24.7-63.1 45.7-63.1 38.8 0 29.5 31.7 55 31.7 13.7 0 25.1-7.7 25.1-23.3 0-25-33.6-50.5-78.6-50.5-66.1 0-101.1 43.2-101.1 105.2zm222.5 49.4c0 31.8 16.2 48 55.4 48 25.8 0 39.1-8.5 39.1-24 0-11.4-7-18.1-18.8-18.1h-7.8c-9.6 0-14-4.4-14-12.5v-107.8h16.2c15.9 0 24.4-4.8 24.4-17.7 0-12.9-8.5-17.7-24.4-17.7h-16.2v-32.9c0-17.7-10.7-26.9-27-26.9-16.2 0-26.9 9.2-26.9 26.9v32.9h-9.2c-15.1 0-21.4 5.9-21.4 17.7 0 11.8 6.3 17.7 21.4 17.7h9.2zm305.2-127.7c0-14.4-5.9-26.9-26.9-26.9-21.1 0-27 12.5-27 26.9v89c0 26.9-22.1 42.4-40.9 42.4-23.3 0-34-15.5-34-37.3v-94.1c0-14.4-5.9-26.9-26.9-26.9-21.1 0-27 12.5-27 26.9v104.8c0 54.7 35.5 70.9 67.9 70.9 30.7 0 50.2-14 65.4-34h0.7v7.1c0 16.2 7.4 26.9 24.4 26.9 16.9 0 24.3-10.7 24.3-26.9zm45.8 148.7c0 14.4 5.9 26.9 26.9 26.9 21.1 0 27-12.5 27-26.9v-62.8c0-44.6 11.8-59.7 33.5-59.7h9.6c13.3 0 26.6-7.1 26.6-27 0-15.1-12.5-26.2-29.5-26.2-26.2 0-38.4 23.3-44.7 45.8h-0.7v-20.7c0-16.2-10.7-25.1-24.4-25.1-13.6 0-24.3 8.9-24.3 25.1zm310.4-64.2c18 0 23.6-4.8 23.6-23.3 0-44.2-35.5-88.2-97.5-88.2-63.8 0-101.8 42.1-101.8 104.8 0 46.9 28.4 97.8 103.7 97.8 32.5 0 84.5-15.1 84.5-47.6 0-9.9-9.2-21-22.1-21-21.8 0-21.8 26.6-62.4 26.6-31.4 0-49.8-20.7-49.8-49.1zm-121.8-31c5.9-26.2 22.1-42.8 49.1-42.8 24 0 42.4 18.1 45.4 42.8zm-1411.1 417.9c0-38.8-35.8-55.4-87.5-55.4-55.3 0-85.6 27.3-85.6 48.8 0 11 9.2 20.6 22.9 20.6 21.4 0 22.5-29.5 62.3-29.5 18.1 0 34 6.6 34 22.1 0 15.5-10.3 18.5-23.3 20l-32.8 3.7c-41.3 4.8-75.3 17.3-75.3 62 0 33.9 30.3 54.9 60.9 54.9 28.4 0 52.8-8.1 73.8-31.3 0.8 16.6 8.5 31.3 31.8 31.3 12.9 0 24.3-8.4 24.3-20.6 0-8.5-5.5-13.7-5.5-36.2zm-53.9 72.7c0 19.9-18.1 39.1-47.6 39.1-18.5 0-29.9-9.9-29.9-22.1 0-16.2 12.2-23.3 34.7-26.6l19.5-2.9c6.3-1.1 17.4-3 23.3-8.5zm135.8 55.3c5.2 14.4 8.5 19.2 35.4 19.2 27 0 30.3-4.8 35.5-19.2l50.9-141.7c1.5-4.4 3.3-10.3 3.3-13.6 0-19.2-13.3-28.1-26.2-28.1-20.3 0-25.5 17-26.9 22.5l-36.2 121.8h-0.7l-36.2-121.8c-1.5-5.5-6.6-22.5-26.9-22.5-13 0-26.2 8.9-26.2 28.1 0 3.3 1.8 9.2 3.3 13.6zm328.1-128c0-38.8-35.8-55.4-87.5-55.4-55.4 0-85.6 27.3-85.6 48.7 0 11.1 9.2 20.7 22.9 20.7 21.4 0 22.5-29.5 62.3-29.5 18.1 0 34 6.6 34 22.1 0 15.5-10.3 18.5-23.3 19.9l-32.8 3.7c-41.3 4.8-75.3 17.4-75.3 62 0 34 30.3 55 60.9 55 28.4 0 52.8-8.1 73.8-31.4 0.7 16.7 8.5 31.4 31.7 31.4 13 0 24.4-8.5 24.4-20.7 0-8.4-5.5-13.6-5.5-36.1zm-53.9 72.7c0 19.9-18.1 39.1-47.6 39.1-18.5 0-29.9-10-29.9-22.1 0-16.3 12.2-23.3 34.7-26.6l19.5-3c6.3-1.1 17.4-2.9 23.3-8.5zm103.3 47.7c0 14.3 5.9 26.9 27 26.9 21 0 26.9-12.6 26.9-26.9v-148.8c0-14.4-5.9-26.9-26.9-26.9-21.1 0-27 12.5-27 26.9zm-1.1-221.8c0 15.5 12.6 28.1 28.1 28.1 15.5 0 28-12.6 28-28.1 0-15.5-12.5-28-28-28-15.5 0-28.1 12.5-28.1 28zm103.7 221.8c0 17.7 10.7 27 27 27 16.2 0 26.9-9.3 26.9-27v-221.4c0-17.7-10.7-26.9-26.9-26.9-16.3 0-27 9.2-27 26.9zm278.7-120.3c0-38.8-35.8-55.4-87.5-55.4-55.4 0-85.6 27.3-85.6 48.7 0 11.1 9.2 20.7 22.8 20.7 21.5 0 22.6-29.5 62.4-29.5 18.1 0 34 6.6 34 22.1 0 15.5-10.4 18.5-23.3 20l-32.8 3.6c-41.4 4.8-75.3 17.4-75.3 62 0 34 30.3 55 60.9 55 28.4 0 52.8-8.1 73.8-31.3 0.7 16.6 8.5 31.3 31.7 31.3 12.9 0 24.4-8.5 24.4-20.6 0-8.5-5.5-13.7-5.5-36.2zm-53.9 72.7c0 19.9-18.1 39.1-47.6 39.1-18.5 0-29.9-9.9-29.9-22.1 0-16.3 12.1-23.3 34.7-26.6l19.5-2.9c6.3-1.2 17.4-3 23.3-8.5zm100.4 49.1c0 16.6 7.7 25.4 24.3 25.4 15.9 0 24.4-8.8 24.4-25.4v-8.5h0.7c8.9 22.8 30.6 33.9 56.8 33.9 45.1 0 84.6-32.8 84.6-102.6 0-51.6-26.2-100-83.1-100-24 0-42.4 10-53.1 27.3h-0.8v-73.1c0-17.7-10.7-26.9-26.9-26.9-16.2 0-26.9 9.2-26.9 26.9zm136.9-75.2c0 31.7-14.1 57.9-42.8 58.6-31.4 0-43.2-28-43.2-58.6 0-27.7 10.3-60.2 43.2-59.8 34.3 0 42.8 34.7 42.8 59.8zm91.5 73.8c0 17.7 10.7 26.9 26.9 26.9 16.3 0 27-9.2 27-26.9v-221.5c0-17.7-10.7-26.9-27-26.9-16.2 0-26.9 9.2-26.9 26.9zm267.2-64.2c18.1 0 23.6-4.8 23.6-23.2 0-44.3-35.4-88.2-97.4-88.2-63.9 0-101.9 42-101.9 104.8 0 46.8 28.4 97.8 103.7 97.8 32.5 0 84.5-15.2 84.5-47.6 0-10-9.2-21.1-22.1-21.1-21.8 0-21.8 26.6-62.4 26.6-31.3 0-49.8-20.7-49.8-49.1zm-121.8-31c5.9-26.2 22.2-42.8 49.1-42.8 24 0 42.4 18.1 45.4 42.8z"/><path class="b" d="m0 0h1920v1080h-1920z"/></svg>